<?xml version="1.0" encoding="UTF-8" standalone="no"?>
<svg
   xmlns:dc="http://purl.org/dc/elements/1.1/"
   xmlns:cc="http://creativecommons.org/ns#"
   xmlns:rdf="http://www.w3.org/1999/02/22-rdf-syntax-ns#"
   xmlns:svg="http://www.w3.org/2000/svg"
   xmlns="http://www.w3.org/2000/svg"
   xmlns:sodipodi="http://sodipodi.sourceforge.net/DTD/sodipodi-0.dtd"
   xmlns:inkscape="http://www.inkscape.org/namespaces/inkscape"
   viewBox="0 0 52.5 60"
   height="1em"
   width="0.875em"
   version="1.1"
   id="svg2"
   inkscape:version="0.91 r13725"
   sodipodi:docname="google-scholar.svg">
  <sodipodi:namedview
     pagecolor="#ffffff"
     bordercolor="#666666"
     borderopacity="1"
     objecttolerance="10"
     gridtolerance="10"
     guidetolerance="10"
     inkscape:pageopacity="0"
     inkscape:pageshadow="2"
     inkscape:window-width="2343"
     inkscape:window-height="2119"
     id="namedview6"
     showgrid="false"
     inkscape:zoom="11.125147"
     inkscape:cx="-3.9228758"
     inkscape:cy="23.079385"
     inkscape:window-x="0"
     inkscape:window-y="37"
     inkscape:window-maximized="0"
     inkscape:current-layer="svg2" />
  <metadata
     id="metadata8">
    <rdf:RDF>
      <cc:Work
         rdf:about="">
        <dc:format>image/svg+xml</dc:format>
        <dc:type
           rdf:resource="http://purl.org/dc/dcmitype/StillImage" />
        <dc:title></dc:title>
      </cc:Work>
    </rdf:RDF>
  </metadata>
  <defs
     id="defs6" />
  <path
     id="path4138"
     d="M 14.68426,57.801834 C 10.253284,55.79054 9.3683526,54.800349 9.3683526,51.853607 c 0,-5.405145 3.1998994,-8.977164 8.8515454,-9.880898 2.729493,-0.436464 5.233498,-1.231704 5.564453,-1.767201 1.045538,-1.691717 -0.602916,-4.33438 -3.495449,-5.603605 -1.534687,-0.673411 -3.91606,-3.596144 -5.291941,-6.494963 -2.439193,-5.139087 -2.656795,-5.271712 -8.7220661,-5.315908 l -6.22046152,-0.04532 8.68851882,-8.755611 8.6885198,-8.7556119 35.024873,0 c -3.583743,3.639861 -1.38799,1.552148 -3.044014,3.0026026 -0.04621,5.7217863 0.07603,1.1466729 -0.175003,8.2900973 1.171763,0.11676 1.2318,0.09681 1.2318,3.7085 0,10.840282 0.250092,14.51362 -2.325923,14.572521 -2.576014,0.05889 -2.656357,-2.86644 -2.676323,-14.567653 0,0 -0.442806,-3.486422 1.173963,-3.551147 0.25,-1.736429 0.274522,-5.709805 0.274522,-5.709805 l -3.979075,3.83106 c -3.014884,2.90273 -3.491668,4.247455 -3.267182,9.406781 0.184708,4.245155 -0.359004,6.646621 -1.84021,8.127826 -1.969304,1.969305 -1.78858,2.442811 2.855163,7.480677 7.329457,7.951521 6.371178,13.783971 -2.960887,18.021072 -6.717273,3.049886 -16.26157,3.03117 -23.038916,-0.04518 z m 18.663534,-3.354547 c 2.95935,-2.678174 2.882781,-4.014352 -0.432243,-7.543035 -6.513282,-6.933071 -16.588278,0.288751 -10.219922,7.325705 2.577487,2.848092 7.631272,2.951203 10.652165,0.21733 z m -1.91372,-23.580789 c 1.05955,-2.761141 -0.608932,-10.250547 -2.763626,-12.405242 -3.408593,-3.408591 -5.897495,-0.974969 -5.213066,5.097275 0.658507,5.842263 2.660064,9.193587 5.490807,9.193587 0.969267,0 2.087915,-0.848528 2.485885,-1.88562 z"
     style="fill:#000000"
     inkscape:connector-curvature="0" />
</svg>
